# xmcd
#
# Track frame offsets: 
#        150
#        18635
#        34955
#        51865
#        69980
#        87272
#        103845
#        120960
#        138872
#        155392
#        172397
#        189767
#
# Disc length: 2776 seconds
#
# Revision: 1
# Processed by: cddbd v1.5.2PL0 Copyright (c) Steve Scherf et al.
# Submitted via: ExactAudioCopy v0.99pb4
#
DISCID=9c0ad60c
DTITLE=Terry Ganzie - Heavy Like Lead
DYEAR=1900
DGENRE=Reggae
TTITLE0=Heavy Like Lead
TTITLE1=Whosoever Will May Come
TTITLE2=Treat The Woman Right
TTITLE3=Send Them Come
TTITLE4=King Of Kings
TTITLE5=Want The Loving
TTITLE6=Hardware And Lumber
TTITLE7=Working Class
TTITLE8=You Alone
TTITLE9=Ya Mi Born
TTITLE10=Mek Mi Talk
TTITLE11=Need A Woman
EXTD=
EXTT0=
EXTT1=
EXTT2=
EXTT3=
EXTT4=
EXTT5=
EXTT6=
EXTT7=
EXTT8=
EXTT9=
EXTT10=
EXTT11=
PLAYORDER=
